<?xml version="1.0" encoding="utf-8"?>
<!-- Generator: Adobe Illustrator 19.1.0, SVG Export Plug-In . SVG Version: 6.00 Build 0)  -->
<svg version="1.1" id="Layer_1" xmlns="http://www.w3.org/2000/svg" xmlns:xlink="http://www.w3.org/1999/xlink" x="0px" y="0px"
	 viewBox="0 0 98 99" style="enable-background:new 0 0 98 99;" xml:space="preserve">
<style type="text/css">
	.st0{fill:#62CD8C;}
</style>
<path class="st0" d="M97.7,42.3c0-11-14.9-19.9-33.3-19.9c-7.6,0-14.6,1.5-20.2,4.1L36.5,21c3.8-2.2,6.2-5.2,6.2-8.7
	c0-6.6-9-12-20-12s-20,5.4-20,12c0,2.8,1.6,5.3,4.2,7.3c-2.2,1.8-5.6,2.2-4.9,2.6c2.6,1.5,6.4,1,9.7,0c3.2,1.2,6.9,2,11,2
	c4.4,0,8.4-0.9,11.7-2.3l7.7,5.5c-6.8,3.6-11,8.9-11,14.8c0,6.9,5.9,13,15,16.6l-6.7,7.1c-3.5-0.9-7.3-1.5-11.4-1.5
	C12.7,64.6,0.3,72,0.3,81.1c0,5.8,5,10.9,12.7,13.9c-2.1,1.8-5.6,2.3-4.8,2.7c3.1,1.8,8,0.6,11.6-0.8c2.6,0.5,5.4,0.8,8.3,0.8
	c15.3,0,27.7-7.4,27.7-16.5c0-5.7-4.8-10.7-12-13.6l6.7-7.1c4.3,1.2,9.1,1.9,14.1,1.9c3.5,0,6.8-0.3,9.9-0.9
	c4.3,1.6,10.2,3.1,13.9,0.9c0.9-0.5-3.3-1-5.8-3.2C91.6,55.5,97.7,49.3,97.7,42.3z M22.7,22.4c-9.3,0-16.8-4.5-16.8-10.1
	S13.4,2.3,22.7,2.3c9.3,0,16.8,4.5,16.8,10.1S32.1,22.4,22.7,22.4z M47.8,81.1C47.8,87.7,38.9,93,28,93S8.1,87.7,8.1,81.1
	S17,69.3,28,69.3S47.8,74.6,47.8,81.1z M64.4,52.9c-9.8,0-17.7-4.7-17.7-10.6s7.9-10.6,17.7-10.6s17.7,4.7,17.7,10.6
	S74.2,52.9,64.4,52.9z"/>
</svg>
